<?xml version="1.0" encoding="UTF-8"?>
<svg xmlns="http://www.w3.org/2000/svg" xmlns:xlink="http://www.w3.org/1999/xlink" width="18px" height="16px" viewBox="0 0 18 16" version="1.1">
<g id="surface1">
<path style=" stroke:none;fill-rule:nonzero;fill:rgb(0%,0%,0%);fill-opacity:1;" d="M 10.859375 7.140625 C 10.910156 7.445312 10.945312 7.746094 10.945312 8.140625 C 10.945312 11.570312 8.875 14 5.761719 14 C 2.777344 14 0.359375 11.316406 0.359375 8 C 0.359375 4.683594 2.777344 2 5.761719 2 C 7.21875 2 8.433594 2.589844 9.378906 3.570312 L 7.910156 5.136719 C 7.511719 4.710938 6.8125 4.210938 5.761719 4.210938 C 3.917969 4.210938 2.414062 5.90625 2.414062 8 C 2.414062 10.09375 3.917969 11.789062 5.761719 11.789062 C 7.894531 11.789062 8.699219 10.078125 8.824219 9.203125 L 5.761719 9.203125 L 5.761719 7.140625 Z M 16.074219 7.339844 L 16.074219 5.601562 L 14.496094 5.601562 L 14.496094 7.339844 L 12.929688 7.339844 L 12.929688 9.089844 L 14.496094 9.089844 L 14.496094 10.832031 L 16.074219 10.832031 L 16.074219 9.089844 L 17.640625 9.089844 L 17.640625 7.339844 Z M 16.074219 7.339844 "/>
</g>
</svg>
